# xmcd CD database file
#
# Track frame offsets:
#	14462
#	32747
#	46241
#	60449
#	78704
#	103095
#	113560
#	130760
#	147343
#	151350
#	171886
#	189140
#	194305
#	214041
#	230476
#	243143
#
# Disc length: 3719 seconds
#
# Revision: 0
# Processed by: cddbd v1.5.2PL0 Copyright (c) Steve Scherf et al.
# Submitted via: CDex 1.70beta2
#
DISCID=da0dc710
DTITLE=Daniel Yvinec - The Lost Crooners
DYEAR=2008
DGENRE=Jazz
TTITLE0=The End Of A Love Affair
TTITLE1=I Should Care
TTITLE2=Skylark
TTITLE3=Once I Loved
TTITLE4=Everything Happens To Me
TTITLE5=I Fall In Love Too Easily
TTITLE6=I'll Be Sooeing You
TTITLE7=If I Should Loose You
TTITLE8=03-09-2007 16:23
TTITLE9=Smile
TTITLE10=Alone Together
TTITLE11=Wave
TTITLE12=Moon And Sand
TTITLE13=Moon River
TTITLE14=Valentine's Day
TTITLE15=Goodbye
EXTD=YEAR: 2008
EXTT0=
EXTT1=
EXTT2=
EXTT3=
EXTT4=
EXTT5=
EXTT6=
EXTT7=
EXTT8=
EXTT9=
EXTT10=
EXTT11=
EXTT12=
EXTT13=
EXTT14=
EXTT15=
PLAYORDER=
